HIERARCHY
ROOT root
{
	OFFSET	0	13.1	24.9
	CHANNELS 6  Xposition Yposition Zposition Xrotation Yrotation Zrotation
	JOINT spine_1
	{
		OFFSET	0	9.99999	0
		CHANNELS 3  Xrotation Yrotation Zrotation
		JOINT spine_2
		{
			OFFSET	0	112	-10
			CHANNELS 3  Xrotation Yrotation Zrotation
			JOINT spine_3
			{
				OFFSET	0	206.5	19.3
				CHANNELS 3  Xrotation Yrotation Zrotation
				JOINT spine_4
				{
					OFFSET	0	110.4	14.6
					CHANNELS 3  Xrotation Yrotation Zrotation
					JOINT neck_1
					{
						OFFSET	0	71.8	-50.3
						CHANNELS 3  Xrotation Yrotation Zrotation
						JOINT neck_2
						{
							OFFSET	0	86.2	-25.8
							CHANNELS 3  Xrotation Yrotation Zrotation
							JOINT head_ee
							{
								OFFSET	0	179.8	-8.7
								CHANNELS 3  Xrotation Yrotation Zrotation
								End Site
								{
									OFFSET	1	0	0
								}
							}
						}
					}
					JOINT left_clavicle
					{
						OFFSET	-43.2	22.4	-70.8
						CHANNELS 3  Xrotation Yrotation Zrotation
						JOINT left_shoulder
						{
							OFFSET	-93.9	-5.79999	48.7
							CHANNELS 3  Xrotation Yrotation Zrotation
							JOINT left_elbow
							{
								OFFSET	-291.4	-30.8	15.2
								CHANNELS 3  Xrotation Yrotation Zrotation
								JOINT left_lowarm_twist
								{
									OFFSET	-110.7	-3.89999	13.6
									CHANNELS 3  Xrotation Yrotation Zrotation
									JOINT left_hand
									{
										OFFSET	-110.7	-3.89999	13.6
										CHANNELS 3  Xrotation Yrotation Zrotation
										JOINT left_ee
										{
											OFFSET	-80.8	-5.10001	12.1
											CHANNELS 3  Xrotation Yrotation Zrotation
											End Site
											{
												OFFSET	1	0	0
											}
										}
									}
								}
							}
						}
					}
					JOINT right_clavicle
					{
						OFFSET	43.2	22.4	-70.8
						CHANNELS 3  Xrotation Yrotation Zrotation
						JOINT right_shoulder
						{
							OFFSET	93.9	-5.79999	48.7
							CHANNELS 3  Xrotation Yrotation Zrotation
							JOINT right_elbow
							{
								OFFSET	291.4	-30.8	15.2
								CHANNELS 3  Xrotation Yrotation Zrotation
								JOINT right_lowarm_twist
								{
									OFFSET	110.7	-3.89999	13.6
									CHANNELS 3  Xrotation Yrotation Zrotation
									JOINT right_hand
									{
										OFFSET	110.7	-3.89999	13.6
										CHANNELS 3  Xrotation Yrotation Zrotation
										JOINT right_ee
										{
											OFFSET	80.8	-5.10001	12.1
											CHANNELS 3  Xrotation Yrotation Zrotation
											End Site
											{
												OFFSET	1	0	0
											}
										}
									}
								}
							}
						}
					}
				}
			}
		}
	}
	JOINT left_hip
	{
		OFFSET	-82.8	-127.5	0.300001
		CHANNELS 3  Xrotation Yrotation Zrotation
		JOINT left_knee
		{
			OFFSET	-28.2	-396.7	2.2
			CHANNELS 3  Xrotation Yrotation Zrotation
			JOINT left_ankle
			{
				OFFSET	-11.7	-411.3	35.4
				CHANNELS 3  Xrotation Yrotation Zrotation
				JOINT left_toes
				{
					OFFSET	0	-60	-88.6
					CHANNELS 3  Xrotation Yrotation Zrotation
					JOINT left_foot_ee
					{
						OFFSET	-22.5	-16.5	-42.2
						CHANNELS 3  Xrotation Yrotation Zrotation
						End Site
						{
							OFFSET	1	0	0
						}
					}
				}
			}
		}
	}
	JOINT right_hip
	{
		OFFSET	82.8	-127.5	0.300001
		CHANNELS 3  Xrotation Yrotation Zrotation
		JOINT right_knee
		{
			OFFSET	28.2	-396.7	2.2
			CHANNELS 3  Xrotation Yrotation Zrotation
			JOINT right_ankle
			{
				OFFSET	11.7	-411.3	35.4
				CHANNELS 3  Xrotation Yrotation Zrotation
				JOINT right_toes
				{
					OFFSET	0	-60	-88.6
					CHANNELS 3  Xrotation Yrotation Zrotation
					JOINT right_foot_ee
					{
						OFFSET	22.5	-16.5	-42.2
						CHANNELS 3  Xrotation Yrotation Zrotation
						End Site
						{
							OFFSET	1	0	0
						}
					}
				}
			}
		}
	}
}
MOTION
Frames: 7
Frame Time: 0.02
1888.81 701.544 -1493.88 -5.02079 69.4996 0.861126 1.20051 0.637244 1.46441 1.20154 0.54278 1.50198 1.21621 0.248649 1.57755 1.21308 0.494645 1.51851 -18.9569 16.5277 2.56446 -20.3078 30.4801 9.4903 -0.0 0.0 -0.0 1.19772 24.8169 4.45292 -25.6345 -13.3453 60.8976 1.58891 -38.2034 0.550293 -54.8934 -4.65538 4.91404 -2.10561 6.47622 -11.1063 -0.0 0.0 -0.0 14.12 25.714 -28.3196 -0.830007 9.94213 -66.2469 0.746133 20.2849 -0.133479 85.307 4.46332 8.88019 -1.25152 -28.7562 -4.45186 0.0 0.0 0.0 10.4165 21.5097 -11.4802 -24.8448 0.206762 3.77726 34.2103 -14.0691 -4.58869 0.681247 -0.0 -0.0 -0.0 0.0 -0.0 1.03202 3.1783 6.46075 -22.0445 -0.265749 -3.35163 36.1661 22.7285 5.11056 -4.42521 0.0 0.0 0.0 0.0 0.0 
1881.7 702.038 -1498.02 -6.99341 70.4008 2.71042 1.46825 0.807751 1.47499 1.46918 0.712268 1.52339 1.48854 0.418838 1.62866 1.48546 0.670769 1.54211 -19.3374 15.9217 2.97687 -20.5868 29.1306 9.67313 -0.0 0.0 -0.0 1.36535 25.0468 4.69143 -27.9013 -13.0026 60.5069 1.45259 -35.7355 0.468294 -55.3709 -4.71332 4.93391 -2.08734 6.37505 -11.0337 -0.0 0.0 -0.0 14.2382 25.6311 -28.6074 0.708333 10.0371 -66.162 0.828809 22.3213 -0.16352 85.5024 4.48678 8.88903 -1.34179 -28.311 -3.77125 0.0 0.0 0.0 12.8669 19.3089 -12.1248 -26.0891 0.173886 3.96539 35.3346 -15.2683 -4.73731 1.08271 -0.0 -0.0 -0.0 0.0 -0.0 1.15771 1.75552 6.42751 -21.3827 -0.276645 -3.25066 37.3987 24.255 5.31003 -2.7346 0.0 0.0 0.0 0.0 0.0 
1877.68 701.782 -1498.42 -9.316 71.7456 4.71439 1.61619 0.827347 1.4266 1.61702 0.734902 1.47635 1.63632 0.453864 1.58544 1.63349 0.698532 1.4939 -19.5858 16.215 3.98297 -20.8436 29.2057 10.7967 -0.0 0.0 -0.0 1.50384 25.0517 4.87518 -29.4152 -12.5377 60.5836 1.38866 -34.5221 0.431502 -55.9031 -4.77809 4.95548 -2.07781 6.30799 -11.0027 -0.0 0.0 -0.0 14.5255 25.7208 -29.2739 2.56684 10.0116 -66.1628 0.8965 23.9457 -0.190117 85.5233 4.48929 8.88998 -0.839543 -28.2473 -6.47249 0.0 0.0 0.0 15.5076 18.0278 -11.6113 -26.6187 0.158654 4.04524 35.3987 -14.0231 -4.70625 1.42759 -0.0 -0.0 -0.0 0.0 -0.0 1.04594 0.721855 6.43051 -21.0447 -0.281758 -3.19906 36.9515 23.6402 5.23409 -2.05693 0.0 0.0 0.0 0.0 0.0 
1869.19 702.987 -1492.44 -12.2749 73.444 7.30897 1.70159 0.528835 1.29543 1.70241 0.445339 1.32645 1.71291 0.198178 1.3851 1.71047 0.414422 1.33643 -20.1832 16.0253 4.89798 -21.3978 28.4399 11.6987 -0.0 0.0 -0.0 0.980105 25.2963 4.20103 -30.4629 -12.5426 62.3551 1.33006 -33.3782 0.398778 -55.8307 -4.76927 4.95258 -1.97287 6.53361 -10.1967 -0.0 0.0 -0.0 14.1308 25.9487 -28.3162 3.49667 10.8151 -66.0851 0.999899 26.3496 -0.234066 85.435 4.47868 8.88599 0.208186 -28.0608 -12.1755 0.0 0.0 0.0 17.3814 17.9932 -11.1484 -26.9162 0.149777 4.09003 33.7291 -13.4069 -4.52125 1.16839 -0.0 -0.0 -0.0 0.0 -0.0 1.46769 -0.967026 7.38999 -20.7463 -0.286021 -3.15346 36.4421 22.536 5.12937 -2.55684 0.0 0.0 0.0 0.0 0.0 
1856.84 697.055 -1490.44 -15.8896 74.399 10.6055 1.9031 0.450244 1.17257 1.90379 0.374724 1.19884 1.91172 0.156104 1.2463 1.90973 0.350959 1.20601 -19.2269 16.4207 5.86171 -20.3223 28.6101 12.4571 -0.0 0.0 -0.0 0.743538 23.5548 3.73984 -31.2646 -12.5198 65.1824 1.04835 -27.4431 0.255983 -56.4865 -4.84931 4.97843 -1.83731 9.25879 -8.00269 -0.0 0.0 -0.0 13.5885 24.4352 -27.2215 4.71966 11.214 -66.539 1.21224 30.9839 -0.33601 85.4554 4.48113 8.88691 1.73917 -28.618 -21.0875 0.0 0.0 0.0 20.1288 17.5401 -10.9303 -24.1598 0.223112 3.67342 25.4017 -11.2099 -3.54654 1.40821 -0.0 -0.0 -0.0 0.0 -0.0 0.984187 -1.37532 8.05422 -19.6266 -0.299895 -2.98222 37.8894 25.0589 5.40131 -2.16187 0.0 0.0 0.0 0.0 0.0 
1844.97 697.809 -1487.58 -16.7287 74.1209 11.2314 1.97445 0.665363 1.12969 1.97497 0.592135 1.16974 1.98721 0.376937 1.25571 1.98546 0.570509 1.18043 -19.2967 15.5786 6.63841 -20.1855 26.5983 12.7585 -0.0 0.0 -0.0 0.481613 24.1617 3.43941 -31.0162 -11.8551 66.5736 0.8595 -23.0627 0.17536 -57.6959 -4.99767 5.02369 -1.78396 9.32635 -7.62413 -0.0 0.0 -0.0 13.3832 24.1635 -26.7713 5.55243 11.6914 -66.6589 1.37047 34.1703 -0.42124 85.2045 4.45103 8.87552 2.32683 -26.8349 -24.229 0.0 0.0 0.0 23.9791 17.2959 -11.2424 -26.8256 0.152505 4.07639 21.8842 -7.34587 -3.0558 1.35004 -0.0 -0.0 -0.0 0.0 -0.0 0.349287 -3.92419 9.0432 -18.133 -0.313187 -2.75345 37.1926 26.5484 5.4155 -2.72755 0.0 0.0 0.0 0.0 0.0 
1835.85 696.002 -1484.0 -17.6594 74.9364 12.1673 2.0488 0.496073 1.00998 2.04926 0.430804 1.0395 2.05716 0.24236 1.09881 2.05571 0.412847 1.04676 -18.9263 16.2253 7.00326 -19.8506 27.6054 13.2833 -0.0 0.0 -0.0 0.328836 24.2037 3.23766 -31.2976 -11.2205 68.1295 0.742297 -20.1891 0.132152 -57.1344 -4.92868 5.00307 -1.99829 10.3378 -8.52752 -0.0 0.0 -0.0 13.1338 23.7088 -26.2376 6.56936 12.0008 -66.8047 1.49247 36.4741 -0.491794 85.2271 4.45374 8.87655 2.88587 -28.7156 -28.0915 0.0 0.0 0.0 26.4015 17.1492 -11.2179 -23.535 0.236943 3.57853 16.2377 -6.47953 -2.32183 1.86072 -0.0 -0.0 -0.0 0.0 -0.0 -0.425607 -2.73687 9.03766 -17.8984 -0.314733 -2.71748 37.507 25.8523 5.40734 -2.6084 0.0 0.0 0.0 0.0 0.0 
